<?xml version="1.0" encoding="UTF-8"?>
<svg width="331px" height="331px" viewBox="0 0 331 331" version="1.1" xmlns="http://www.w3.org/2000/svg" xmlns:xlink="http://www.w3.org/1999/xlink">
    <!-- Generator: Sketch 44 (41411) - http://www.bohemiancoding.com/sketch -->
    <title>Group</title>
    <desc>Created with Sketch.</desc>
    <defs>
        <path d="M116.5,232.879459 C138.315248,232.879459 156,237.958668 156,205.24085 C156,172.523032 138.315248,146 116.5,146 C94.6847524,146 77,172.523032 77,205.24085 C77,237.958668 94.6847524,232.879459 116.5,232.879459 Z" id="path-1"></path>
        <ellipse id="path-2" cx="116.372807" cy="136.000174" rx="27.372807" ry="30.0001739"></ellipse>
        <path d="M215.5,232.879459 C237.315248,232.879459 255,237.958668 255,205.24085 C255,172.523032 237.315248,146 215.5,146 C193.684752,146 176,172.523032 176,205.24085 C176,237.958668 193.684752,232.879459 215.5,232.879459 Z" id="path-3"></path>
        <path d="M166.5,256.879459 C188.315248,256.879459 206,261.958668 206,229.24085 C206,196.523032 188.315248,170 166.5,170 C144.684752,170 127,196.523032 127,229.24085 C127,261.958668 144.684752,256.879459 166.5,256.879459 Z" id="path-4"></path>
        <ellipse id="path-5" cx="215.372807" cy="136.000174" rx="27.372807" ry="30.0001739"></ellipse>
        <ellipse id="path-6" cx="166.372807" cy="160.000174" rx="27.372807" ry="30.0001739"></ellipse>
    </defs>
    <g id="Page-1" stroke="none" stroke-width="1" fill="none" fill-rule="evenodd">
        <g id="Group">
            <rect id="Rectangle" fill="#D8D8D8" x="0" y="0" width="331" height="331"></rect>
            <g id="Oval">
                <use fill="#FFFFFF" fill-rule="evenodd" xlink:href="#path-1"></use>
                <path stroke="#D8D8D8" stroke-width="10" d="M116.5,237.879459 C114.396102,237.879459 112.603657,237.917473 109.089238,238.019893 C102.035969,238.225445 99.3170651,238.236915 95.8514844,237.942997 C90.9664511,237.528694 86.9938007,236.473334 83.5852365,234.440221 C75.6568522,229.711164 72,220.415766 72,205.24085 C72,170.087795 91.3948583,141 116.5,141 C141.605142,141 161,170.087795 161,205.24085 C161,220.415766 157.343148,229.711164 149.414764,234.440221 C146.006199,236.473334 142.033549,237.528694 137.148516,237.942997 C133.682935,238.236915 130.964031,238.225445 123.910762,238.019893 C120.396343,237.917473 118.603898,237.879459 116.5,237.879459 Z"></path>
            </g>
            <g id="Oval-2">
                <use fill="#FFFFFF" fill-rule="evenodd" xlink:href="#path-2"></use>
                <ellipse stroke="#D8D8D8" stroke-width="10" cx="116.372807" cy="136.000174" rx="32.372807" ry="35.0001739"></ellipse>
            </g>
            <g id="Oval">
                <use fill="#FFFFFF" fill-rule="evenodd" xlink:href="#path-3"></use>
                <path stroke="#D8D8D8" stroke-width="10" d="M215.5,237.879459 C213.396102,237.879459 211.603657,237.917473 208.089238,238.019893 C201.035969,238.225445 198.317065,238.236915 194.851484,237.942997 C189.966451,237.528694 185.993801,236.473334 182.585236,234.440221 C174.656852,229.711164 171,220.415766 171,205.24085 C171,170.087795 190.394858,141 215.5,141 C240.605142,141 260,170.087795 260,205.24085 C260,220.415766 256.343148,229.711164 248.414764,234.440221 C245.006199,236.473334 241.033549,237.528694 236.148516,237.942997 C232.682935,238.236915 229.964031,238.225445 222.910762,238.019893 C219.396343,237.917473 217.603898,237.879459 215.5,237.879459 Z"></path>
            </g>
            <g id="Oval">
                <use fill="#FFFFFF" fill-rule="evenodd" xlink:href="#path-4"></use>
                <path stroke="#D8D8D8" stroke-width="10" d="M166.5,261.879459 C164.396102,261.879459 162.603657,261.917473 159.089238,262.019893 C152.035969,262.225445 149.317065,262.236915 145.851484,261.942997 C140.966451,261.528694 136.993801,260.473334 133.585236,258.440221 C125.656852,253.711164 122,244.415766 122,229.24085 C122,194.087795 141.394858,165 166.5,165 C191.605142,165 211,194.087795 211,229.24085 C211,244.415766 207.343148,253.711164 199.414764,258.440221 C196.006199,260.473334 192.033549,261.528694 187.148516,261.942997 C183.682935,262.236915 180.964031,262.225445 173.910762,262.019893 C170.396343,261.917473 168.603898,261.879459 166.5,261.879459 Z"></path>
            </g>
            <g id="Oval-2">
                <use fill="#FFFFFF" fill-rule="evenodd" xlink:href="#path-5"></use>
                <ellipse stroke="#D8D8D8" stroke-width="10" cx="215.372807" cy="136.000174" rx="32.372807" ry="35.0001739"></ellipse>
            </g>
            <g id="Oval-2">
                <use fill="#FFFFFF" fill-rule="evenodd" xlink:href="#path-6"></use>
                <ellipse stroke="#D8D8D8" stroke-width="10" cx="166.372807" cy="160.000174" rx="32.372807" ry="35.0001739"></ellipse>
            </g>
            <path d="M29.792,26.48 C29.792,24.86 30.908,23.852 32.456,23.852 L33.608,23.852 C34.796,23.852 35.372,22.88 35.372,21.872 C35.372,20.9 34.796,19.928 33.608,19.928 L31.484,19.928 C28.028,19.928 25.148,22.952 25.148,26.984 L25.148,45.56 C25.148,46.424 26.12,47 27.416,47 C28.676,47 29.792,46.424 29.792,45.56 L29.792,33.284 L34.184,33.284 C34.94,33.284 35.372,32.456 35.372,31.592 C35.372,30.764 34.94,29.9 34.184,29.9 L29.792,29.9 L29.792,26.48 Z M43.112,29.684 C48.728,29.684 50.852,33.068 50.852,36.704 L50.852,45.524 C50.852,46.352 49.88,47 48.584,47 C47.396,47 46.496,46.352 46.496,45.524 L46.496,44.48 C45.2,45.956 43.508,47.324 41.024,47.324 C38.468,47.324 36.344,45.812 36.344,42.536 C36.344,38.396 39.764,37.244 44.732,37.244 L46.208,37.244 L46.208,36.776 C46.208,35.228 45.416,33.464 43.04,33.464 C40.268,33.464 39.8,34.58 38.936,34.58 C37.892,34.58 37.352,33.32 37.352,32.276 C37.352,30.8 40.556,29.684 43.112,29.684 Z M46.208,40.412 L46.208,39.656 L45.668,39.656 C43.256,39.656 40.988,39.908 40.988,41.924 C40.988,43.256 41.816,43.868 42.896,43.868 C44.372,43.868 46.208,42.176 46.208,40.412 Z M64.712,45.56 C64.712,46.568 65.936,47 67.016,47 C68.168,47 69.356,46.568 69.356,45.56 L69.356,36.956 C69.356,34.868 70.76,33.716 72.2,33.716 C73.64,33.716 75.116,34.832 75.116,36.992 L75.116,45.524 C75.116,46.244 76.196,47 77.42,47 C78.68,47 79.76,46.244 79.76,45.524 L79.76,36.992 C79.76,32.312 76.628,29.684 73.352,29.684 C71.264,29.684 69.176,30.836 67.916,33.284 C67.16,31.16 65.468,29.684 63.416,29.684 C61.04,29.684 59.456,31.016 58.664,32.42 L58.664,31.34 C58.664,30.476 57.728,29.9 56.612,29.9 C55.244,29.9 54.308,30.476 54.308,31.34 L54.308,45.524 C54.308,46.244 55.244,47 56.612,47 C57.872,47 58.952,46.244 58.952,45.524 L58.952,36.992 C58.952,34.868 60.356,33.752 61.76,33.752 C63.272,33.752 64.712,34.976 64.712,36.992 L64.712,45.56 Z M85.52,29.9 C84.188,29.9 83.216,30.476 83.216,31.34 L83.216,45.524 C83.216,46.244 84.188,47 85.52,47 C86.816,47 87.86,46.244 87.86,45.524 L87.86,31.34 C87.86,30.476 86.816,29.9 85.52,29.9 Z M85.52,21.548 C84.08,21.548 82.964,22.592 82.964,23.816 C82.964,25.004 84.08,26.084 85.52,26.084 C86.924,26.084 88.04,25.004 88.04,23.816 C88.04,22.592 86.924,21.548 85.52,21.548 Z M94.088,19.928 C92.72,19.928 91.784,20.504 91.784,21.368 L91.784,45.524 C91.784,46.244 92.72,47 94.088,47 C95.348,47 96.428,46.244 96.428,45.524 L96.428,21.368 C96.428,20.504 95.348,19.928 94.088,19.928 Z M105.104,45.74 C104.852,50.06 101.54,51.032 99.956,51.032 C99.092,51.032 98.768,51.932 98.768,52.976 C98.768,54.704 99.704,54.956 100.892,54.956 C107.336,54.956 108.344,50.24 110.036,45.92 L115.292,32.492 C115.364,32.312 115.4,32.096 115.4,31.952 C115.4,30.656 113.348,29.648 112.232,29.648 C111.728,29.648 111.188,29.864 111.008,30.44 L107.516,41.204 L103.196,30.44 C103.016,29.864 102.476,29.648 101.864,29.648 C100.676,29.648 98.768,30.656 98.768,31.88 C98.768,32.096 98.84,32.312 98.912,32.492 L105.104,45.74 Z" id="family" fill="#FFFFFF"></path>
        </g>
    </g>
</svg>