<?xml version="1.0" encoding="UTF-8"?>
<svg width="331px" height="331px" viewBox="0 0 331 331" version="1.1" xmlns="http://www.w3.org/2000/svg" xmlns:xlink="http://www.w3.org/1999/xlink">
    <!-- Generator: Sketch 44 (41411) - http://www.bohemiancoding.com/sketch -->
    <title>Group 4</title>
    <desc>Created with Sketch.</desc>
    <defs></defs>
    <g id="Page-1" stroke="none" stroke-width="1" fill="none" fill-rule="evenodd">
        <g id="Group-4">
            <g id="Group-3">
                <g id="Group" fill="#D8D8D8">
                    <rect id="Rectangle" x="0" y="0" width="331" height="331"></rect>
                </g>
                <g id="Group-2" transform="translate(23.000000, 10.000000)" fill="#FFFFFF">
                    <g id="Group">
                        <path d="M8.604,32.392 C7.74,32.392 6.948,32.284 6.264,32.068 C6.012,32.284 5.832,32.5 5.832,32.788 C5.832,35.128 16.668,32.572 16.668,39.304 C16.668,43.3 12.852,44.956 8.82,44.956 C4.572,44.956 0.864,43.12 0.864,39.88 C0.864,38.044 2.016,36.82 3.492,36.064 C2.592,35.632 1.98,34.948 1.98,33.76 C1.98,32.428 2.736,31.672 3.816,30.952 C2.412,29.872 1.584,28.252 1.584,26.38 L1.584,25.624 C1.584,22.132 4.392,19.684 8.604,19.684 C10.188,19.684 11.628,20.08 12.708,20.728 C13.536,18.82 14.256,18.28 14.904,18.28 C16.092,18.28 16.74,19.144 16.74,19.72 C16.74,20.152 16.488,20.476 16.164,20.728 C15.696,21.052 15.012,21.412 14.472,22.096 C15.3,23.068 15.732,24.292 15.732,25.624 L15.732,26.38 C15.732,29.836 12.78,32.392 8.604,32.392 Z M11.232,26.38 L11.232,25.624 C11.232,23.896 10.296,22.492 8.64,22.492 C6.984,22.492 6.084,23.896 6.084,25.624 L6.084,26.344 C6.084,28.18 7.02,29.584 8.676,29.584 C10.26,29.584 11.232,28.252 11.232,26.38 Z M12.168,39.448 C12.168,37.432 9.468,37.18 7.2,36.928 C6.048,37.468 5.256,38.296 5.256,39.412 C5.256,41.032 6.84,41.968 8.748,41.968 C10.656,41.968 12.168,40.996 12.168,39.448 Z M26.208,19.684 C30.384,19.684 34.02,22.996 34.02,26.992 L34.02,29.944 C34.02,33.796 30.384,37.324 26.208,37.324 C21.996,37.324 18.396,33.832 18.396,29.944 L18.396,26.992 C18.396,23.104 21.924,19.684 26.208,19.684 Z M29.376,29.944 L29.376,26.992 C29.376,25.372 27.936,23.752 26.208,23.752 C24.444,23.752 23.04,25.372 23.04,26.992 L23.04,29.944 C23.04,31.636 24.444,33.256 26.208,33.256 C27.936,33.256 29.376,31.636 29.376,29.944 Z M41.616,36.568 C41.868,37.144 42.768,37.396 43.704,37.396 C44.604,37.396 45.576,37.108 45.828,36.568 L51.984,22.312 C52.092,22.096 52.128,21.916 52.128,21.7 C52.128,20.584 50.004,19.684 49.032,19.684 C48.384,19.684 47.916,19.972 47.7,20.548 L43.704,30.916 L39.708,20.476 C39.492,19.936 38.952,19.684 38.34,19.684 C37.152,19.684 35.244,20.584 35.244,21.664 C35.244,21.844 35.316,22.168 35.424,22.312 L41.616,36.568 Z M61.236,19.684 C65.196,19.684 68.652,22.456 68.652,26.452 C68.652,29.512 66.924,29.656 65.304,29.656 L57.996,29.656 L57.996,30.196 C57.996,32.284 59.688,33.652 62.208,33.652 C64.584,33.652 65.556,32.284 66.636,32.284 C67.716,32.284 68.4,33.616 68.4,34.336 C68.4,35.56 65.916,37.324 62.064,37.324 C56.952,37.324 53.352,34.372 53.352,29.944 L53.352,26.884 C53.352,22.996 56.844,19.684 61.236,19.684 Z M57.996,26.92 L63.252,26.92 C64.008,26.92 64.296,26.74 64.296,25.948 C64.296,24.256 62.856,23.104 61.128,23.104 C59.508,23.104 57.996,24.184 57.996,25.912 L57.996,26.92 Z M81.324,23.752 C82.188,23.752 83.016,22.816 83.016,21.7 C83.016,20.62 82.188,19.684 81.324,19.684 L80.208,19.684 C78.228,19.684 76.5,21.268 75.78,22.816 L75.78,21.34 C75.78,20.476 74.844,19.9 73.692,19.9 C72.36,19.9 71.424,20.476 71.424,21.34 L71.424,35.524 C71.424,36.244 72.36,37 73.692,37 C74.988,37 76.068,36.244 76.068,35.524 L76.068,29.08 C76.068,25.804 78.12,23.752 80.208,23.752 L81.324,23.752 Z M89.64,26.992 C89.64,24.976 91.116,23.752 92.592,23.752 C94.32,23.752 95.724,25.372 95.724,26.992 L95.724,35.524 C95.724,36.496 96.948,37 98.028,37 C99.18,37 100.368,36.496 100.368,35.524 L100.368,26.992 C100.368,22.996 97.488,19.684 94.176,19.684 C91.764,19.684 90.036,21.016 89.352,22.42 L89.352,21.34 C89.352,20.476 88.416,19.9 87.3,19.9 C85.932,19.9 84.996,20.476 84.996,21.34 L84.996,35.524 C84.996,36.244 85.932,37 87.3,37 C88.56,37 89.64,36.244 89.64,35.524 L89.64,26.992 Z M114.228,35.56 C114.228,36.568 115.452,37 116.532,37 C117.684,37 118.872,36.568 118.872,35.56 L118.872,26.956 C118.872,24.868 120.276,23.716 121.716,23.716 C123.156,23.716 124.632,24.832 124.632,26.992 L124.632,35.524 C124.632,36.244 125.712,37 126.936,37 C128.196,37 129.276,36.244 129.276,35.524 L129.276,26.992 C129.276,22.312 126.144,19.684 122.868,19.684 C120.78,19.684 118.692,20.836 117.432,23.284 C116.676,21.16 114.984,19.684 112.932,19.684 C110.556,19.684 108.972,21.016 108.18,22.42 L108.18,21.34 C108.18,20.476 107.244,19.9 106.128,19.9 C104.76,19.9 103.824,20.476 103.824,21.34 L103.824,35.524 C103.824,36.244 104.76,37 106.128,37 C107.388,37 108.468,36.244 108.468,35.524 L108.468,26.992 C108.468,24.868 109.872,23.752 111.276,23.752 C112.788,23.752 114.228,24.976 114.228,26.992 L114.228,35.56 Z M139.968,19.684 C143.928,19.684 147.384,22.456 147.384,26.452 C147.384,29.512 145.656,29.656 144.036,29.656 L136.728,29.656 L136.728,30.196 C136.728,32.284 138.42,33.652 140.94,33.652 C143.316,33.652 144.288,32.284 145.368,32.284 C146.448,32.284 147.132,33.616 147.132,34.336 C147.132,35.56 144.648,37.324 140.796,37.324 C135.684,37.324 132.084,34.372 132.084,29.944 L132.084,26.884 C132.084,22.996 135.576,19.684 139.968,19.684 Z M136.728,26.92 L141.984,26.92 C142.74,26.92 143.028,26.74 143.028,25.948 C143.028,24.256 141.588,23.104 139.86,23.104 C138.24,23.104 136.728,24.184 136.728,25.912 L136.728,26.92 Z M154.8,26.992 C154.8,24.976 156.276,23.752 157.752,23.752 C159.48,23.752 160.884,25.372 160.884,26.992 L160.884,35.524 C160.884,36.496 162.108,37 163.188,37 C164.34,37 165.528,36.496 165.528,35.524 L165.528,26.992 C165.528,22.996 162.648,19.684 159.336,19.684 C156.924,19.684 155.196,21.016 154.512,22.42 L154.512,21.34 C154.512,20.476 153.576,19.9 152.46,19.9 C151.092,19.9 150.156,20.476 150.156,21.34 L150.156,35.524 C150.156,36.244 151.092,37 152.46,37 C153.72,37 154.8,36.244 154.8,35.524 L154.8,26.992 Z M173.592,23.284 L177.84,23.284 C178.596,23.284 179.028,22.456 179.028,21.592 C179.028,20.764 178.596,19.9 177.84,19.9 L173.592,19.9 L173.592,13.708 C173.592,12.844 172.44,12.268 171.252,12.268 C170.172,12.268 168.948,12.844 168.948,13.708 L168.948,31.168 C168.948,35.236 171.288,37 175.608,37 L177.012,37 C178.344,37 178.992,36.028 178.992,35.02 C178.992,34.048 178.344,33.076 177.012,33.076 L175.608,33.076 C174.096,33.076 173.592,32.572 173.592,31.168 L173.592,23.284 Z" id="government"></path>
                    </g>
                </g>
            </g>
        </g>
    </g>
</svg>