<?xml version="1.0" encoding="UTF-8"?>
<svg width="331px" height="331px" viewBox="0 0 331 331" version="1.1" xmlns="http://www.w3.org/2000/svg" xmlns:xlink="http://www.w3.org/1999/xlink">
    <!-- Generator: Sketch 44 (41411) - http://www.bohemiancoding.com/sketch -->
    <title>Group 4</title>
    <desc>Created with Sketch.</desc>
    <defs></defs>
    <g id="Page-1" stroke="none" stroke-width="1" fill="none" fill-rule="evenodd">
        <g id="Group-4">
            <g id="Group-3">
                <g id="Group" fill="#D8D8D8">
                    <rect id="Rectangle" x="0" y="0" width="331" height="331"></rect>
                </g>
                <g id="Group-2" transform="translate(22.000000, 10.000000)" fill="#FFFFFF">
                    <g id="Group">
                        <path d="M8.162,19.684 C13.778,19.684 15.902,23.068 15.902,26.704 L15.902,35.524 C15.902,36.352 14.93,37 13.634,37 C12.446,37 11.546,36.352 11.546,35.524 L11.546,34.48 C10.25,35.956 8.558,37.324 6.074,37.324 C3.518,37.324 1.394,35.812 1.394,32.536 C1.394,28.396 4.814,27.244 9.782,27.244 L11.258,27.244 L11.258,26.776 C11.258,25.228 10.466,23.464 8.09,23.464 C5.318,23.464 4.85,24.58 3.986,24.58 C2.942,24.58 2.402,23.32 2.402,22.276 C2.402,20.8 5.606,19.684 8.162,19.684 Z M11.258,30.412 L11.258,29.656 L10.718,29.656 C8.306,29.656 6.038,29.908 6.038,31.924 C6.038,33.256 6.866,33.868 7.946,33.868 C9.422,33.868 11.258,32.176 11.258,30.412 Z M32.138,9.928 C33.47,9.928 34.442,10.504 34.442,11.368 L34.442,35.524 C34.442,36.244 33.47,37 32.138,37 C30.986,37 30.05,36.244 30.05,35.524 L30.05,34.48 C29.33,35.956 27.35,37.324 25.046,37.324 C21.698,37.324 18.746,33.796 18.746,29.944 L18.746,26.992 C18.746,22.996 21.626,19.684 25.154,19.684 C27.386,19.684 29.006,21.016 29.798,22.42 L29.798,11.368 C29.798,10.504 30.842,9.928 32.138,9.928 Z M23.39,26.992 L23.39,29.944 C23.39,31.6 24.83,33.256 26.522,33.256 C28.358,33.256 29.798,31.348 29.798,30.592 L29.798,26.992 C29.798,24.976 28.106,23.752 26.558,23.752 C24.794,23.752 23.39,25.372 23.39,26.992 Z M50.858,9.928 C52.19,9.928 53.162,10.504 53.162,11.368 L53.162,35.524 C53.162,36.244 52.19,37 50.858,37 C49.706,37 48.77,36.244 48.77,35.524 L48.77,34.48 C48.05,35.956 46.07,37.324 43.766,37.324 C40.418,37.324 37.466,33.796 37.466,29.944 L37.466,26.992 C37.466,22.996 40.346,19.684 43.874,19.684 C46.106,19.684 47.726,21.016 48.518,22.42 L48.518,11.368 C48.518,10.504 49.562,9.928 50.858,9.928 Z M42.11,26.992 L42.11,29.944 C42.11,31.6 43.55,33.256 45.242,33.256 C47.078,33.256 48.518,31.348 48.518,30.592 L48.518,26.992 C48.518,24.976 46.826,23.752 45.278,23.752 C43.514,23.752 42.11,25.372 42.11,26.992 Z M68.642,26.992 C68.642,24.976 70.118,23.752 71.594,23.752 C73.322,23.752 74.726,25.372 74.726,26.992 L74.726,35.524 C74.726,36.496 75.95,37 77.03,37 C78.182,37 79.37,36.496 79.37,35.524 L79.37,26.992 C79.37,22.996 76.49,19.684 73.178,19.684 C70.766,19.684 69.038,21.016 68.354,22.42 L68.354,21.34 C68.354,20.476 67.418,19.9 66.302,19.9 C64.934,19.9 63.998,20.476 63.998,21.34 L63.998,35.524 C63.998,36.244 64.934,37 66.302,37 C67.562,37 68.642,36.244 68.642,35.524 L68.642,26.992 Z M90.062,19.684 C94.022,19.684 97.478,22.456 97.478,26.452 C97.478,29.512 95.75,29.656 94.13,29.656 L86.822,29.656 L86.822,30.196 C86.822,32.284 88.514,33.652 91.034,33.652 C93.41,33.652 94.382,32.284 95.462,32.284 C96.542,32.284 97.226,33.616 97.226,34.336 C97.226,35.56 94.742,37.324 90.89,37.324 C85.778,37.324 82.178,34.372 82.178,29.944 L82.178,26.884 C82.178,22.996 85.67,19.684 90.062,19.684 Z M86.822,26.92 L92.078,26.92 C92.834,26.92 93.122,26.74 93.122,25.948 C93.122,24.256 91.682,23.104 89.954,23.104 C88.334,23.104 86.822,24.184 86.822,25.912 L86.822,26.92 Z M123.002,22.312 C123.11,22.132 123.146,21.88 123.146,21.664 C123.146,20.512 121.31,19.72 120.158,19.72 C119.51,19.72 119.006,20.008 118.826,20.476 L115.19,30.736 L112.526,21.808 C112.274,20.98 111.626,20.872 110.942,20.872 C110.222,20.872 109.61,20.98 109.358,21.808 L106.658,30.7 L103.058,20.476 C102.878,19.972 102.338,19.72 101.726,19.72 C100.502,19.72 98.702,20.512 98.702,21.628 C98.702,21.808 98.738,22.024 98.882,22.312 L104.426,36.532 C104.678,37.18 105.47,37.396 106.226,37.396 C107.126,37.396 107.99,37.108 108.206,36.532 L110.942,28.72 L113.714,36.568 C113.93,37.108 114.722,37.396 115.622,37.396 C116.414,37.396 117.206,37.18 117.458,36.568 L123.002,22.312 Z" id="add-new"></path>
                    </g>
                    <rect id="Rectangle-2" x="128" y="117" width="20.4062266" height="116.863281" rx="10.2031133"></rect>
                    <path d="M79,176.146812 C79,170.542882 83.5680894,166 89.2031133,166 L186.308605,166 C191.943629,166 196.511719,170.542882 196.511719,176.146812 C196.511719,181.750741 191.943629,186.293624 186.308605,186.293624 L89.2031133,186.293624 C83.5680894,186.293624 79,181.750741 79,176.146812 Z" id="Rectangle-2"></path>
                </g>
            </g>
        </g>
    </g>
</svg>