<?xml version="1.0" encoding="UTF-8"?>
<svg width="331px" height="331px" viewBox="0 0 331 331" version="1.1" xmlns="http://www.w3.org/2000/svg" xmlns:xlink="http://www.w3.org/1999/xlink">
    <!-- Generator: Sketch 44 (41411) - http://www.bohemiancoding.com/sketch -->
    <title>Group 4</title>
    <desc>Created with Sketch.</desc>
    <defs></defs>
    <g id="Page-1" stroke="none" stroke-width="1" fill="none" fill-rule="evenodd">
        <g id="Group-4">
            <g id="Group-3">
                <g id="Group" fill="#D8D8D8">
                    <rect id="Rectangle" x="0" y="0" width="331" height="331"></rect>
                </g>
                <g id="Group-2" transform="translate(28.000000, 10.000000)" fill="#FFFFFF">
                    <g id="Group">
                        <path d="M7.426,33.796 C4.402,33.796 3.61,32.176 2.566,32.176 C1.666,32.176 1.018,33.472 1.018,34.228 C1.018,35.812 3.862,37.324 7.534,37.324 C11.782,37.324 14.158,35.272 14.158,32.068 C14.158,25.66 5.518,27.46 5.518,24.832 C5.518,24.112 6.238,23.212 8.038,23.212 C10.018,23.212 11.134,24.256 11.998,24.256 C13.078,24.256 13.69,22.672 13.69,22.024 C13.69,20.692 10.882,19.684 7.966,19.684 C3.142,19.684 1.522,22.492 1.522,25.048 C1.522,31.06 10.054,29.08 10.054,32.248 C10.054,32.968 9.55,33.796 7.426,33.796 Z M24.13,37.324 C27.514,37.324 30.07,35.812 30.07,34.372 C30.07,33.472 29.35,32.176 28.09,32.176 C27.19,32.176 26.65,33.256 24.49,33.256 C22.006,33.256 20.962,32.032 20.962,29.944 L20.962,27.064 C20.962,24.976 22.006,23.752 24.454,23.752 C26.578,23.752 27.226,24.76 28.018,24.76 C29.134,24.76 29.854,23.356 29.854,22.492 C29.854,21.088 27.478,19.684 24.094,19.684 C18.658,19.684 16.318,22.924 16.318,27.064 L16.318,29.944 C16.318,34.156 18.694,37.324 24.13,37.324 Z M37.198,26.992 C37.198,24.976 38.674,23.752 40.15,23.752 C41.842,23.752 43.282,25.372 43.282,26.992 L43.282,35.524 C43.282,36.496 44.506,37 45.586,37 C46.738,37 47.926,36.496 47.926,35.524 L47.926,26.992 C47.926,22.996 45.046,19.684 41.734,19.684 C39.466,19.684 37.846,21.016 37.198,22.42 L37.198,11.368 C37.198,10.504 36.118,9.928 34.858,9.928 C33.49,9.928 32.554,10.504 32.554,11.368 L32.554,35.524 C32.554,36.244 33.49,37 34.858,37 C36.118,37 37.198,36.244 37.198,35.524 L37.198,26.992 Z M58.618,19.684 C62.578,19.684 66.034,22.456 66.034,26.452 C66.034,29.512 64.306,29.656 62.686,29.656 L55.378,29.656 L55.378,30.196 C55.378,32.284 57.07,33.652 59.59,33.652 C61.966,33.652 62.938,32.284 64.018,32.284 C65.098,32.284 65.782,33.616 65.782,34.336 C65.782,35.56 63.298,37.324 59.446,37.324 C54.334,37.324 50.734,34.372 50.734,29.944 L50.734,26.884 C50.734,22.996 54.226,19.684 58.618,19.684 Z M55.378,26.92 L60.634,26.92 C61.39,26.92 61.678,26.74 61.678,25.948 C61.678,24.256 60.238,23.104 58.51,23.104 C56.89,23.104 55.378,24.184 55.378,25.912 L55.378,26.92 Z M81.586,9.928 C82.918,9.928 83.89,10.504 83.89,11.368 L83.89,35.524 C83.89,36.244 82.918,37 81.586,37 C80.434,37 79.498,36.244 79.498,35.524 L79.498,34.48 C78.778,35.956 76.798,37.324 74.494,37.324 C71.146,37.324 68.194,33.796 68.194,29.944 L68.194,26.992 C68.194,22.996 71.074,19.684 74.602,19.684 C76.834,19.684 78.454,21.016 79.246,22.42 L79.246,11.368 C79.246,10.504 80.29,9.928 81.586,9.928 Z M72.838,26.992 L72.838,29.944 C72.838,31.6 74.278,33.256 75.97,33.256 C77.806,33.256 79.246,31.348 79.246,30.592 L79.246,26.992 C79.246,24.976 77.554,23.752 76.006,23.752 C74.242,23.752 72.838,25.372 72.838,26.992 Z M95.158,37.324 C99.406,37.324 102.934,33.904 102.934,30.016 L102.934,21.34 C102.934,20.584 101.998,19.9 100.63,19.9 C99.37,19.9 98.29,20.584 98.29,21.34 L98.29,30.016 C98.29,31.672 96.922,33.256 95.158,33.256 C93.394,33.256 91.99,31.636 91.99,30.016 L91.99,21.376 C91.99,20.656 90.91,19.9 89.686,19.9 C88.39,19.9 87.346,20.656 87.346,21.376 L87.346,30.016 C87.346,33.868 90.874,37.324 95.158,37.324 Z M109.018,9.928 C107.65,9.928 106.714,10.504 106.714,11.368 L106.714,35.524 C106.714,36.244 107.65,37 109.018,37 C110.278,37 111.358,36.244 111.358,35.524 L111.358,11.368 C111.358,10.504 110.278,9.928 109.018,9.928 Z M122.518,19.684 C126.478,19.684 129.934,22.456 129.934,26.452 C129.934,29.512 128.206,29.656 126.586,29.656 L119.278,29.656 L119.278,30.196 C119.278,32.284 120.97,33.652 123.49,33.652 C125.866,33.652 126.838,32.284 127.918,32.284 C128.998,32.284 129.682,33.616 129.682,34.336 C129.682,35.56 127.198,37.324 123.346,37.324 C118.234,37.324 114.634,34.372 114.634,29.944 L114.634,26.884 C114.634,22.996 118.126,19.684 122.518,19.684 Z M119.278,26.92 L124.534,26.92 C125.29,26.92 125.578,26.74 125.578,25.948 C125.578,24.256 124.138,23.104 122.41,23.104 C120.79,23.104 119.278,24.184 119.278,25.912 L119.278,26.92 Z M138.142,33.796 C135.118,33.796 134.326,32.176 133.282,32.176 C132.382,32.176 131.734,33.472 131.734,34.228 C131.734,35.812 134.578,37.324 138.25,37.324 C142.498,37.324 144.874,35.272 144.874,32.068 C144.874,25.66 136.234,27.46 136.234,24.832 C136.234,24.112 136.954,23.212 138.754,23.212 C140.734,23.212 141.85,24.256 142.714,24.256 C143.794,24.256 144.406,22.672 144.406,22.024 C144.406,20.692 141.598,19.684 138.682,19.684 C133.858,19.684 132.238,22.492 132.238,25.048 C132.238,31.06 140.77,29.08 140.77,32.248 C140.77,32.968 140.266,33.796 138.142,33.796 Z" id="schedules"></path>
                    </g>
                    <rect id="Rectangle-2" x="122" y="117" width="20.4062266" height="116.863281" rx="10.2031133"></rect>
                    <path d="M73,176.146812 C73,170.542882 77.5680894,166 83.2031133,166 L180.308605,166 C185.943629,166 190.511719,170.542882 190.511719,176.146812 C190.511719,181.750741 185.943629,186.293624 180.308605,186.293624 L83.2031133,186.293624 C77.5680894,186.293624 73,181.750741 73,176.146812 Z" id="Rectangle-2"></path>
                </g>
            </g>
            <circle id="Oval-3" stroke="#D8D8D8" stroke-width="10" fill="#FFFFFF" cx="166" cy="182" r="64"></circle>
            <rect id="Rectangle-3" fill="#D8D8D8" x="163" y="133" width="10" height="49" rx="5"></rect>
            <rect id="Rectangle-3" fill="#D8D8D8" transform="translate(153.868310, 198.717163) rotate(40.000000) translate(-153.868310, -198.717163) " x="148.86831" y="180.717163" width="10" height="36" rx="5"></rect>
        </g>
    </g>
</svg>