<?xml version="1.0" encoding="UTF-8"?>
<svg width="331px" height="331px" viewBox="0 0 331 331" version="1.1" xmlns="http://www.w3.org/2000/svg" xmlns:xlink="http://www.w3.org/1999/xlink">
    <!-- Generator: Sketch 44 (41411) - http://www.bohemiancoding.com/sketch -->
    <title>Group 6</title>
    <desc>Created with Sketch.</desc>
    <defs></defs>
    <g id="Page-1" stroke="none" stroke-width="1" fill="none" fill-rule="evenodd">
        <g id="Group-6">
            <g id="Group-5">
                <g id="Group-4">
                    <g id="Group-3">
                        <g id="Group" fill="#D8D8D8">
                            <rect id="Rectangle" x="0" y="0" width="331" height="331"></rect>
                        </g>
                        <g id="Group-2" transform="translate(29.000000, 10.000000)" fill="#FFFFFF">
                            <g id="Group">
                                <path d="M8.132,33.796 C5.108,33.796 4.316,32.176 3.272,32.176 C2.372,32.176 1.724,33.472 1.724,34.228 C1.724,35.812 4.568,37.324 8.24,37.324 C12.488,37.324 14.864,35.272 14.864,32.068 C14.864,25.66 6.224,27.46 6.224,24.832 C6.224,24.112 6.944,23.212 8.744,23.212 C10.724,23.212 11.84,24.256 12.704,24.256 C13.784,24.256 14.396,22.672 14.396,22.024 C14.396,20.692 11.588,19.684 8.672,19.684 C3.848,19.684 2.228,22.492 2.228,25.048 C2.228,31.06 10.76,29.08 10.76,32.248 C10.76,32.968 10.256,33.796 8.132,33.796 Z M24.836,19.684 C28.796,19.684 32.252,22.456 32.252,26.452 C32.252,29.512 30.524,29.656 28.904,29.656 L21.596,29.656 L21.596,30.196 C21.596,32.284 23.288,33.652 25.808,33.652 C28.184,33.652 29.156,32.284 30.236,32.284 C31.316,32.284 32,33.616 32,34.336 C32,35.56 29.516,37.324 25.664,37.324 C20.552,37.324 16.952,34.372 16.952,29.944 L16.952,26.884 C16.952,22.996 20.444,19.684 24.836,19.684 Z M21.596,26.92 L26.852,26.92 C27.608,26.92 27.896,26.74 27.896,25.948 C27.896,24.256 26.456,23.104 24.728,23.104 C23.108,23.104 21.596,24.184 21.596,25.912 L21.596,26.92 Z M39.632,23.284 L43.88,23.284 C44.636,23.284 45.068,22.456 45.068,21.592 C45.068,20.764 44.636,19.9 43.88,19.9 L39.632,19.9 L39.632,13.708 C39.632,12.844 38.48,12.268 37.292,12.268 C36.212,12.268 34.988,12.844 34.988,13.708 L34.988,31.168 C34.988,35.236 37.328,37 41.648,37 L43.052,37 C44.384,37 45.032,36.028 45.032,35.02 C45.032,34.048 44.384,33.076 43.052,33.076 L41.648,33.076 C40.136,33.076 39.632,32.572 39.632,31.168 L39.632,23.284 Z M52.124,23.284 L56.372,23.284 C57.128,23.284 57.56,22.456 57.56,21.592 C57.56,20.764 57.128,19.9 56.372,19.9 L52.124,19.9 L52.124,13.708 C52.124,12.844 50.972,12.268 49.784,12.268 C48.704,12.268 47.48,12.844 47.48,13.708 L47.48,31.168 C47.48,35.236 49.82,37 54.14,37 L55.544,37 C56.876,37 57.524,36.028 57.524,35.02 C57.524,34.048 56.876,33.076 55.544,33.076 L54.14,33.076 C52.628,33.076 52.124,32.572 52.124,31.168 L52.124,23.284 Z M62.312,19.9 C60.98,19.9 60.008,20.476 60.008,21.34 L60.008,35.524 C60.008,36.244 60.98,37 62.312,37 C63.608,37 64.652,36.244 64.652,35.524 L64.652,21.34 C64.652,20.476 63.608,19.9 62.312,19.9 Z M62.312,11.548 C60.872,11.548 59.756,12.592 59.756,13.816 C59.756,15.004 60.872,16.084 62.312,16.084 C63.716,16.084 64.832,15.004 64.832,13.816 C64.832,12.592 63.716,11.548 62.312,11.548 Z M72.896,26.992 C72.896,24.976 74.372,23.752 75.848,23.752 C77.576,23.752 78.98,25.372 78.98,26.992 L78.98,35.524 C78.98,36.496 80.204,37 81.284,37 C82.436,37 83.624,36.496 83.624,35.524 L83.624,26.992 C83.624,22.996 80.744,19.684 77.432,19.684 C75.02,19.684 73.292,21.016 72.608,22.42 L72.608,21.34 C72.608,20.476 71.672,19.9 70.556,19.9 C69.188,19.9 68.252,20.476 68.252,21.34 L68.252,35.524 C68.252,36.244 69.188,37 70.556,37 C71.816,37 72.896,36.244 72.896,35.524 L72.896,26.992 Z M93.56,32.392 C92.696,32.392 91.904,32.284 91.22,32.068 C90.968,32.284 90.788,32.5 90.788,32.788 C90.788,35.128 101.624,32.572 101.624,39.304 C101.624,43.3 97.808,44.956 93.776,44.956 C89.528,44.956 85.82,43.12 85.82,39.88 C85.82,38.044 86.972,36.82 88.448,36.064 C87.548,35.632 86.936,34.948 86.936,33.76 C86.936,32.428 87.692,31.672 88.772,30.952 C87.368,29.872 86.54,28.252 86.54,26.38 L86.54,25.624 C86.54,22.132 89.348,19.684 93.56,19.684 C95.144,19.684 96.584,20.08 97.664,20.728 C98.492,18.82 99.212,18.28 99.86,18.28 C101.048,18.28 101.696,19.144 101.696,19.72 C101.696,20.152 101.444,20.476 101.12,20.728 C100.652,21.052 99.968,21.412 99.428,22.096 C100.256,23.068 100.688,24.292 100.688,25.624 L100.688,26.38 C100.688,29.836 97.736,32.392 93.56,32.392 Z M96.188,26.38 L96.188,25.624 C96.188,23.896 95.252,22.492 93.596,22.492 C91.94,22.492 91.04,23.896 91.04,25.624 L91.04,26.344 C91.04,28.18 91.976,29.584 93.632,29.584 C95.216,29.584 96.188,28.252 96.188,26.38 Z M97.124,39.448 C97.124,37.432 94.424,37.18 92.156,36.928 C91.004,37.468 90.212,38.296 90.212,39.412 C90.212,41.032 91.796,41.968 93.704,41.968 C95.612,41.968 97.124,40.996 97.124,39.448 Z M109.436,33.796 C106.412,33.796 105.62,32.176 104.576,32.176 C103.676,32.176 103.028,33.472 103.028,34.228 C103.028,35.812 105.872,37.324 109.544,37.324 C113.792,37.324 116.168,35.272 116.168,32.068 C116.168,25.66 107.528,27.46 107.528,24.832 C107.528,24.112 108.248,23.212 110.048,23.212 C112.028,23.212 113.144,24.256 114.008,24.256 C115.088,24.256 115.7,22.672 115.7,22.024 C115.7,20.692 112.892,19.684 109.976,19.684 C105.152,19.684 103.532,22.492 103.532,25.048 C103.532,31.06 112.064,29.08 112.064,32.248 C112.064,32.968 111.56,33.796 109.436,33.796 Z" id="settings"></path>
                            </g>
                        </g>
                    </g>
                </g>
            </g>
        </g>
    </g>
</svg>