<?xml version="1.0" encoding="UTF-8"?>
<svg width="331px" height="331px" viewBox="0 0 331 331" version="1.1" xmlns="http://www.w3.org/2000/svg" xmlns:xlink="http://www.w3.org/1999/xlink">
    <!-- Generator: Sketch 44 (41411) - http://www.bohemiancoding.com/sketch -->
    <title>Group</title>
    <desc>Created with Sketch.</desc>
    <defs>
        <path d="M116.5,271.879459 C138.315248,271.879459 156,276.958668 156,244.24085 C156,211.523032 138.315248,185 116.5,185 C94.6847524,185 77,211.523032 77,244.24085 C77,276.958668 94.6847524,271.879459 116.5,271.879459 Z" id="path-1"></path>
        <ellipse id="path-2" cx="116.372807" cy="175.000174" rx="27.372807" ry="30.0001739"></ellipse>
        <path d="M215.5,271.879459 C237.315248,271.879459 255,276.958668 255,244.24085 C255,211.523032 237.315248,185 215.5,185 C193.684752,185 176,211.523032 176,244.24085 C176,276.958668 193.684752,271.879459 215.5,271.879459 Z" id="path-3"></path>
        <path d="M166.5,295.879459 C188.315248,295.879459 206,300.958668 206,268.24085 C206,235.523032 188.315248,209 166.5,209 C144.684752,209 127,235.523032 127,268.24085 C127,300.958668 144.684752,295.879459 166.5,295.879459 Z" id="path-4"></path>
        <ellipse id="path-5" cx="215.372807" cy="175.000174" rx="27.372807" ry="30.0001739"></ellipse>
        <ellipse id="path-6" cx="166.372807" cy="199.000174" rx="27.372807" ry="30.0001739"></ellipse>
    </defs>
    <g id="Page-1" stroke="none" stroke-width="1" fill="none" fill-rule="evenodd">
        <g id="Group">
            <rect id="Rectangle" fill="#D8D8D8" x="0" y="0" width="331" height="331"></rect>
            <g id="Oval">
                <use fill="#FFFFFF" fill-rule="evenodd" xlink:href="#path-1"></use>
                <path stroke="#D8D8D8" stroke-width="10" d="M116.5,276.879459 C114.396102,276.879459 112.603657,276.917473 109.089238,277.019893 C102.035969,277.225445 99.3170651,277.236915 95.8514844,276.942997 C90.9664511,276.528694 86.9938007,275.473334 83.5852365,273.440221 C75.6568522,268.711164 72,259.415766 72,244.24085 C72,209.087795 91.3948583,180 116.5,180 C141.605142,180 161,209.087795 161,244.24085 C161,259.415766 157.343148,268.711164 149.414764,273.440221 C146.006199,275.473334 142.033549,276.528694 137.148516,276.942997 C133.682935,277.236915 130.964031,277.225445 123.910762,277.019893 C120.396343,276.917473 118.603898,276.879459 116.5,276.879459 Z"></path>
            </g>
            <g id="Oval-2">
                <use fill="#FFFFFF" fill-rule="evenodd" xlink:href="#path-2"></use>
                <ellipse stroke="#D8D8D8" stroke-width="10" cx="116.372807" cy="175.000174" rx="32.372807" ry="35.0001739"></ellipse>
            </g>
            <g id="Oval">
                <use fill="#FFFFFF" fill-rule="evenodd" xlink:href="#path-3"></use>
                <path stroke="#D8D8D8" stroke-width="10" d="M215.5,276.879459 C213.396102,276.879459 211.603657,276.917473 208.089238,277.019893 C201.035969,277.225445 198.317065,277.236915 194.851484,276.942997 C189.966451,276.528694 185.993801,275.473334 182.585236,273.440221 C174.656852,268.711164 171,259.415766 171,244.24085 C171,209.087795 190.394858,180 215.5,180 C240.605142,180 260,209.087795 260,244.24085 C260,259.415766 256.343148,268.711164 248.414764,273.440221 C245.006199,275.473334 241.033549,276.528694 236.148516,276.942997 C232.682935,277.236915 229.964031,277.225445 222.910762,277.019893 C219.396343,276.917473 217.603898,276.879459 215.5,276.879459 Z"></path>
            </g>
            <g id="Oval">
                <use fill="#FFFFFF" fill-rule="evenodd" xlink:href="#path-4"></use>
                <path stroke="#D8D8D8" stroke-width="10" d="M166.5,300.879459 C164.396102,300.879459 162.603657,300.917473 159.089238,301.019893 C152.035969,301.225445 149.317065,301.236915 145.851484,300.942997 C140.966451,300.528694 136.993801,299.473334 133.585236,297.440221 C125.656852,292.711164 122,283.415766 122,268.24085 C122,233.087795 141.394858,204 166.5,204 C191.605142,204 211,233.087795 211,268.24085 C211,283.415766 207.343148,292.711164 199.414764,297.440221 C196.006199,299.473334 192.033549,300.528694 187.148516,300.942997 C183.682935,301.236915 180.964031,301.225445 173.910762,301.019893 C170.396343,300.917473 168.603898,300.879459 166.5,300.879459 Z"></path>
            </g>
            <g id="Oval-2">
                <use fill="#FFFFFF" fill-rule="evenodd" xlink:href="#path-5"></use>
                <ellipse stroke="#D8D8D8" stroke-width="10" cx="215.372807" cy="175.000174" rx="32.372807" ry="35.0001739"></ellipse>
            </g>
            <g id="Oval-2">
                <use fill="#FFFFFF" fill-rule="evenodd" xlink:href="#path-6"></use>
                <ellipse stroke="#D8D8D8" stroke-width="10" cx="166.372807" cy="199.000174" rx="32.372807" ry="35.0001739"></ellipse>
            </g>
            <text id="family" font-family="Dosis-Bold, Dosis" font-size="36" font-weight="bold" fill="#FFFFFF">
                <tspan x="23.312" y="47">family</tspan>
            </text>
        </g>
    </g>
</svg>